<mxfile host="Electron" agent="Mozilla/5.0 (Windows NT 10.0; Win64; x64) AppleWebKit/537.36 (KHTML, like Gecko) draw.io/26.0.9 Chrome/128.0.6613.186 Electron/32.2.5 Safari/537.36" version="26.0.9">
  <diagram id="C5RBs43oDa-KdzZeNtuy" name="Page-1">
    <mxGraphModel dx="2064" dy="2374" grid="1" gridSize="10" guides="1" tooltips="1" connect="1" arrows="1" fold="1" page="1" pageScale="1" pageWidth="827" pageHeight="1169" math="0" shadow="0">
      <root>
        <mxCell id="WIyWlLk6GJQsqaUBKTNV-0" />
        <mxCell id="WIyWlLk6GJQsqaUBKTNV-1" parent="WIyWlLk6GJQsqaUBKTNV-0" />
        <mxCell id="ebPfhtc5WiSc0Pybruz--7" value="" style="edgeStyle=orthogonalEdgeStyle;rounded=0;orthogonalLoop=1;jettySize=auto;html=1;" parent="WIyWlLk6GJQsqaUBKTNV-1" source="ebPfhtc5WiSc0Pybruz--5" edge="1">
          <mxGeometry relative="1" as="geometry">
            <mxPoint x="150" y="210" as="targetPoint" />
          </mxGeometry>
        </mxCell>
        <mxCell id="ebPfhtc5WiSc0Pybruz--5" value="Algus" style="ellipse;whiteSpace=wrap;html=1;" parent="WIyWlLk6GJQsqaUBKTNV-1" vertex="1">
          <mxGeometry x="90" y="80" width="120" height="80" as="geometry" />
        </mxCell>
        <mxCell id="e642xRVTgl7zbtHsGjpM-2" style="edgeStyle=orthogonalEdgeStyle;rounded=0;orthogonalLoop=1;jettySize=auto;html=1;entryX=0.5;entryY=0;entryDx=0;entryDy=0;" edge="1" parent="WIyWlLk6GJQsqaUBKTNV-1" source="e642xRVTgl7zbtHsGjpM-0" target="e642xRVTgl7zbtHsGjpM-1">
          <mxGeometry relative="1" as="geometry" />
        </mxCell>
        <mxCell id="e642xRVTgl7zbtHsGjpM-0" value="Kuva kasutajale tekst küsimusega,kas su tuba on kolnurga ristküliku või ringi kujuline?&quot;" style="shape=parallelogram;perimeter=parallelogramPerimeter;whiteSpace=wrap;html=1;fixedSize=1;" vertex="1" parent="WIyWlLk6GJQsqaUBKTNV-1">
          <mxGeometry x="30" y="210" width="240" height="60" as="geometry" />
        </mxCell>
        <mxCell id="e642xRVTgl7zbtHsGjpM-4" style="edgeStyle=orthogonalEdgeStyle;rounded=0;orthogonalLoop=1;jettySize=auto;html=1;entryX=0.5;entryY=0;entryDx=0;entryDy=0;" edge="1" parent="WIyWlLk6GJQsqaUBKTNV-1" source="e642xRVTgl7zbtHsGjpM-1" target="e642xRVTgl7zbtHsGjpM-3">
          <mxGeometry relative="1" as="geometry" />
        </mxCell>
        <mxCell id="e642xRVTgl7zbtHsGjpM-1" value="Ootame kuni kasutaja susestab muutujasse &quot;kujund&quot; vastuse" style="rounded=0;whiteSpace=wrap;html=1;" vertex="1" parent="WIyWlLk6GJQsqaUBKTNV-1">
          <mxGeometry x="65" y="300" width="170" height="80" as="geometry" />
        </mxCell>
        <mxCell id="e642xRVTgl7zbtHsGjpM-6" style="edgeStyle=orthogonalEdgeStyle;rounded=0;orthogonalLoop=1;jettySize=auto;html=1;entryX=0.5;entryY=0;entryDx=0;entryDy=0;" edge="1" parent="WIyWlLk6GJQsqaUBKTNV-1" source="e642xRVTgl7zbtHsGjpM-3" target="e642xRVTgl7zbtHsGjpM-5">
          <mxGeometry relative="1" as="geometry" />
        </mxCell>
        <mxCell id="e642xRVTgl7zbtHsGjpM-7" value="JAH" style="edgeLabel;html=1;align=center;verticalAlign=middle;resizable=0;points=[];" vertex="1" connectable="0" parent="e642xRVTgl7zbtHsGjpM-6">
          <mxGeometry x="-0.2308" y="-2" relative="1" as="geometry">
            <mxPoint as="offset" />
          </mxGeometry>
        </mxCell>
        <mxCell id="e642xRVTgl7zbtHsGjpM-14" style="edgeStyle=orthogonalEdgeStyle;rounded=0;orthogonalLoop=1;jettySize=auto;html=1;exitX=1;exitY=0.5;exitDx=0;exitDy=0;" edge="1" parent="WIyWlLk6GJQsqaUBKTNV-1" source="e642xRVTgl7zbtHsGjpM-3" target="e642xRVTgl7zbtHsGjpM-1">
          <mxGeometry relative="1" as="geometry">
            <mxPoint x="360" y="350" as="targetPoint" />
            <Array as="points">
              <mxPoint x="240" y="475" />
              <mxPoint x="240" y="340" />
            </Array>
          </mxGeometry>
        </mxCell>
        <mxCell id="e642xRVTgl7zbtHsGjpM-15" value="EI" style="edgeLabel;html=1;align=center;verticalAlign=middle;resizable=0;points=[];" vertex="1" connectable="0" parent="e642xRVTgl7zbtHsGjpM-14">
          <mxGeometry x="0.1875" y="-2" relative="1" as="geometry">
            <mxPoint as="offset" />
          </mxGeometry>
        </mxCell>
        <mxCell id="e642xRVTgl7zbtHsGjpM-3" value="Kas kasutaja on sisestanud midagi?" style="rhombus;whiteSpace=wrap;html=1;" vertex="1" parent="WIyWlLk6GJQsqaUBKTNV-1">
          <mxGeometry x="80" y="430" width="140" height="90" as="geometry" />
        </mxCell>
        <mxCell id="e642xRVTgl7zbtHsGjpM-9" style="edgeStyle=orthogonalEdgeStyle;rounded=0;orthogonalLoop=1;jettySize=auto;html=1;entryX=0.5;entryY=0;entryDx=0;entryDy=0;" edge="1" parent="WIyWlLk6GJQsqaUBKTNV-1" source="e642xRVTgl7zbtHsGjpM-5" target="e642xRVTgl7zbtHsGjpM-8">
          <mxGeometry relative="1" as="geometry" />
        </mxCell>
        <mxCell id="e642xRVTgl7zbtHsGjpM-10" value="EI" style="edgeLabel;html=1;align=center;verticalAlign=middle;resizable=0;points=[];" vertex="1" connectable="0" parent="e642xRVTgl7zbtHsGjpM-9">
          <mxGeometry x="-0.0462" y="-4" relative="1" as="geometry">
            <mxPoint as="offset" />
          </mxGeometry>
        </mxCell>
        <mxCell id="e642xRVTgl7zbtHsGjpM-12" style="edgeStyle=orthogonalEdgeStyle;rounded=0;orthogonalLoop=1;jettySize=auto;html=1;entryX=0;entryY=0.5;entryDx=0;entryDy=0;" edge="1" parent="WIyWlLk6GJQsqaUBKTNV-1" source="e642xRVTgl7zbtHsGjpM-5" target="e642xRVTgl7zbtHsGjpM-11">
          <mxGeometry relative="1" as="geometry" />
        </mxCell>
        <mxCell id="e642xRVTgl7zbtHsGjpM-13" value="JAH" style="edgeLabel;html=1;align=center;verticalAlign=middle;resizable=0;points=[];" vertex="1" connectable="0" parent="e642xRVTgl7zbtHsGjpM-12">
          <mxGeometry x="0.1" y="-3" relative="1" as="geometry">
            <mxPoint as="offset" />
          </mxGeometry>
        </mxCell>
        <mxCell id="e642xRVTgl7zbtHsGjpM-5" value="Kas sisestatuf dõna on &quot;kolmnurk&quot;?" style="rhombus;whiteSpace=wrap;html=1;" vertex="1" parent="WIyWlLk6GJQsqaUBKTNV-1">
          <mxGeometry x="70" y="585" width="160" height="80" as="geometry" />
        </mxCell>
        <mxCell id="e642xRVTgl7zbtHsGjpM-45" style="edgeStyle=orthogonalEdgeStyle;rounded=0;orthogonalLoop=1;jettySize=auto;html=1;entryX=0;entryY=0.5;entryDx=0;entryDy=0;" edge="1" parent="WIyWlLk6GJQsqaUBKTNV-1" source="e642xRVTgl7zbtHsGjpM-8" target="e642xRVTgl7zbtHsGjpM-44">
          <mxGeometry relative="1" as="geometry" />
        </mxCell>
        <mxCell id="e642xRVTgl7zbtHsGjpM-46" value="JAH" style="edgeLabel;html=1;align=center;verticalAlign=middle;resizable=0;points=[];" vertex="1" connectable="0" parent="e642xRVTgl7zbtHsGjpM-45">
          <mxGeometry x="-0.1" y="3" relative="1" as="geometry">
            <mxPoint as="offset" />
          </mxGeometry>
        </mxCell>
        <mxCell id="e642xRVTgl7zbtHsGjpM-117" style="edgeStyle=orthogonalEdgeStyle;rounded=0;orthogonalLoop=1;jettySize=auto;html=1;entryX=0.5;entryY=0;entryDx=0;entryDy=0;" edge="1" parent="WIyWlLk6GJQsqaUBKTNV-1" source="e642xRVTgl7zbtHsGjpM-8" target="e642xRVTgl7zbtHsGjpM-116">
          <mxGeometry relative="1" as="geometry" />
        </mxCell>
        <mxCell id="e642xRVTgl7zbtHsGjpM-118" value="EI" style="edgeLabel;html=1;align=center;verticalAlign=middle;resizable=0;points=[];" vertex="1" connectable="0" parent="e642xRVTgl7zbtHsGjpM-117">
          <mxGeometry x="-0.2686" y="-4" relative="1" as="geometry">
            <mxPoint as="offset" />
          </mxGeometry>
        </mxCell>
        <mxCell id="e642xRVTgl7zbtHsGjpM-8" value="Kas sisestatud sõna on &quot;ristkülik&quot;?" style="rhombus;whiteSpace=wrap;html=1;" vertex="1" parent="WIyWlLk6GJQsqaUBKTNV-1">
          <mxGeometry x="80" y="770" width="140" height="80" as="geometry" />
        </mxCell>
        <mxCell id="e642xRVTgl7zbtHsGjpM-17" style="edgeStyle=orthogonalEdgeStyle;rounded=0;orthogonalLoop=1;jettySize=auto;html=1;entryX=0;entryY=0.5;entryDx=0;entryDy=0;" edge="1" parent="WIyWlLk6GJQsqaUBKTNV-1" source="e642xRVTgl7zbtHsGjpM-11" target="e642xRVTgl7zbtHsGjpM-16">
          <mxGeometry relative="1" as="geometry" />
        </mxCell>
        <mxCell id="e642xRVTgl7zbtHsGjpM-11" value="Kuva kasutajale tekst&quot;Palun sisesta oma toa esimene külg&quot;" style="shape=parallelogram;perimeter=parallelogramPerimeter;whiteSpace=wrap;html=1;fixedSize=1;" vertex="1" parent="WIyWlLk6GJQsqaUBKTNV-1">
          <mxGeometry x="300" y="595" width="190" height="60" as="geometry" />
        </mxCell>
        <mxCell id="e642xRVTgl7zbtHsGjpM-19" style="edgeStyle=orthogonalEdgeStyle;rounded=0;orthogonalLoop=1;jettySize=auto;html=1;entryX=0;entryY=0.5;entryDx=0;entryDy=0;" edge="1" parent="WIyWlLk6GJQsqaUBKTNV-1" source="e642xRVTgl7zbtHsGjpM-16" target="e642xRVTgl7zbtHsGjpM-18">
          <mxGeometry relative="1" as="geometry" />
        </mxCell>
        <mxCell id="e642xRVTgl7zbtHsGjpM-16" value="Oota kuni kasutaja sisestab muutujasse &quot;a_külg double tüüpi andmed&quot;" style="rounded=0;whiteSpace=wrap;html=1;" vertex="1" parent="WIyWlLk6GJQsqaUBKTNV-1">
          <mxGeometry x="530" y="580" width="140" height="90" as="geometry" />
        </mxCell>
        <mxCell id="e642xRVTgl7zbtHsGjpM-21" style="edgeStyle=orthogonalEdgeStyle;rounded=0;orthogonalLoop=1;jettySize=auto;html=1;" edge="1" parent="WIyWlLk6GJQsqaUBKTNV-1" source="e642xRVTgl7zbtHsGjpM-18" target="e642xRVTgl7zbtHsGjpM-16">
          <mxGeometry relative="1" as="geometry">
            <Array as="points">
              <mxPoint x="810" y="520" />
              <mxPoint x="600" y="520" />
            </Array>
          </mxGeometry>
        </mxCell>
        <mxCell id="e642xRVTgl7zbtHsGjpM-22" value="EI" style="edgeLabel;html=1;align=center;verticalAlign=middle;resizable=0;points=[];" vertex="1" connectable="0" parent="e642xRVTgl7zbtHsGjpM-21">
          <mxGeometry x="-0.0925" y="2" relative="1" as="geometry">
            <mxPoint as="offset" />
          </mxGeometry>
        </mxCell>
        <mxCell id="e642xRVTgl7zbtHsGjpM-24" style="edgeStyle=orthogonalEdgeStyle;rounded=0;orthogonalLoop=1;jettySize=auto;html=1;" edge="1" parent="WIyWlLk6GJQsqaUBKTNV-1" source="e642xRVTgl7zbtHsGjpM-18" target="e642xRVTgl7zbtHsGjpM-23">
          <mxGeometry relative="1" as="geometry" />
        </mxCell>
        <mxCell id="e642xRVTgl7zbtHsGjpM-18" value="Kas kasutaja on sisetanud A_külg andmed?" style="rhombus;whiteSpace=wrap;html=1;" vertex="1" parent="WIyWlLk6GJQsqaUBKTNV-1">
          <mxGeometry x="740" y="585" width="140" height="80" as="geometry" />
        </mxCell>
        <mxCell id="e642xRVTgl7zbtHsGjpM-27" style="edgeStyle=orthogonalEdgeStyle;rounded=0;orthogonalLoop=1;jettySize=auto;html=1;" edge="1" parent="WIyWlLk6GJQsqaUBKTNV-1" source="e642xRVTgl7zbtHsGjpM-23">
          <mxGeometry relative="1" as="geometry">
            <mxPoint x="1150" y="625" as="targetPoint" />
          </mxGeometry>
        </mxCell>
        <mxCell id="e642xRVTgl7zbtHsGjpM-23" value="Kuva kasutajale tekst &quot;Palun sisesta oma toa teine külg&quot;" style="shape=parallelogram;perimeter=parallelogramPerimeter;whiteSpace=wrap;html=1;fixedSize=1;" vertex="1" parent="WIyWlLk6GJQsqaUBKTNV-1">
          <mxGeometry x="930" y="595" width="170" height="60" as="geometry" />
        </mxCell>
        <mxCell id="e642xRVTgl7zbtHsGjpM-29" style="edgeStyle=orthogonalEdgeStyle;rounded=0;orthogonalLoop=1;jettySize=auto;html=1;entryX=0;entryY=0.5;entryDx=0;entryDy=0;" edge="1" parent="WIyWlLk6GJQsqaUBKTNV-1" source="e642xRVTgl7zbtHsGjpM-26" target="e642xRVTgl7zbtHsGjpM-28">
          <mxGeometry relative="1" as="geometry" />
        </mxCell>
        <mxCell id="e642xRVTgl7zbtHsGjpM-26" value="Oota kuni kasutaja sisestab muutujasse&quot;b_külg double tüüpi andmed&quot;" style="rounded=0;whiteSpace=wrap;html=1;" vertex="1" parent="WIyWlLk6GJQsqaUBKTNV-1">
          <mxGeometry x="1150" y="585" width="139" height="80" as="geometry" />
        </mxCell>
        <mxCell id="e642xRVTgl7zbtHsGjpM-30" style="edgeStyle=orthogonalEdgeStyle;rounded=0;orthogonalLoop=1;jettySize=auto;html=1;" edge="1" parent="WIyWlLk6GJQsqaUBKTNV-1" source="e642xRVTgl7zbtHsGjpM-28">
          <mxGeometry relative="1" as="geometry">
            <mxPoint x="1180" y="585" as="targetPoint" />
            <Array as="points">
              <mxPoint x="1420" y="530" />
              <mxPoint x="1180" y="530" />
            </Array>
          </mxGeometry>
        </mxCell>
        <mxCell id="e642xRVTgl7zbtHsGjpM-31" value="EI" style="edgeLabel;html=1;align=center;verticalAlign=middle;resizable=0;points=[];" vertex="1" connectable="0" parent="e642xRVTgl7zbtHsGjpM-30">
          <mxGeometry x="0.0057" y="-4" relative="1" as="geometry">
            <mxPoint as="offset" />
          </mxGeometry>
        </mxCell>
        <mxCell id="e642xRVTgl7zbtHsGjpM-33" style="edgeStyle=orthogonalEdgeStyle;rounded=0;orthogonalLoop=1;jettySize=auto;html=1;entryX=0;entryY=0.5;entryDx=0;entryDy=0;" edge="1" parent="WIyWlLk6GJQsqaUBKTNV-1" source="e642xRVTgl7zbtHsGjpM-28" target="e642xRVTgl7zbtHsGjpM-32">
          <mxGeometry relative="1" as="geometry" />
        </mxCell>
        <mxCell id="e642xRVTgl7zbtHsGjpM-28" value="Kas kasutaja on sisetanud b_külg andmed?" style="rhombus;whiteSpace=wrap;html=1;" vertex="1" parent="WIyWlLk6GJQsqaUBKTNV-1">
          <mxGeometry x="1350" y="585" width="140" height="80" as="geometry" />
        </mxCell>
        <mxCell id="e642xRVTgl7zbtHsGjpM-35" style="edgeStyle=orthogonalEdgeStyle;rounded=0;orthogonalLoop=1;jettySize=auto;html=1;entryX=0;entryY=0.5;entryDx=0;entryDy=0;" edge="1" parent="WIyWlLk6GJQsqaUBKTNV-1" source="e642xRVTgl7zbtHsGjpM-32" target="e642xRVTgl7zbtHsGjpM-34">
          <mxGeometry relative="1" as="geometry" />
        </mxCell>
        <mxCell id="e642xRVTgl7zbtHsGjpM-32" value="Kuva kasutajale tekst &quot;Palun sisesta oma toa kolmas külg&quot;" style="shape=parallelogram;perimeter=parallelogramPerimeter;whiteSpace=wrap;html=1;fixedSize=1;" vertex="1" parent="WIyWlLk6GJQsqaUBKTNV-1">
          <mxGeometry x="1540" y="595" width="170" height="60" as="geometry" />
        </mxCell>
        <mxCell id="e642xRVTgl7zbtHsGjpM-37" style="edgeStyle=orthogonalEdgeStyle;rounded=0;orthogonalLoop=1;jettySize=auto;html=1;entryX=0;entryY=0.5;entryDx=0;entryDy=0;" edge="1" parent="WIyWlLk6GJQsqaUBKTNV-1" source="e642xRVTgl7zbtHsGjpM-34" target="e642xRVTgl7zbtHsGjpM-36">
          <mxGeometry relative="1" as="geometry" />
        </mxCell>
        <mxCell id="e642xRVTgl7zbtHsGjpM-34" value="Oota kuni kasutaja sisestab muutujasse&quot;c_külg double tüüpi andmed&quot;" style="rounded=0;whiteSpace=wrap;html=1;" vertex="1" parent="WIyWlLk6GJQsqaUBKTNV-1">
          <mxGeometry x="1770" y="588.13" width="140" height="73.75" as="geometry" />
        </mxCell>
        <mxCell id="e642xRVTgl7zbtHsGjpM-42" style="edgeStyle=orthogonalEdgeStyle;rounded=0;orthogonalLoop=1;jettySize=auto;html=1;entryX=0;entryY=0.5;entryDx=0;entryDy=0;" edge="1" parent="WIyWlLk6GJQsqaUBKTNV-1" source="e642xRVTgl7zbtHsGjpM-36" target="e642xRVTgl7zbtHsGjpM-41">
          <mxGeometry relative="1" as="geometry" />
        </mxCell>
        <mxCell id="e642xRVTgl7zbtHsGjpM-43" value="JAH" style="edgeLabel;html=1;align=center;verticalAlign=middle;resizable=0;points=[];" vertex="1" connectable="0" parent="e642xRVTgl7zbtHsGjpM-42">
          <mxGeometry x="0.6287" y="-2" relative="1" as="geometry">
            <mxPoint as="offset" />
          </mxGeometry>
        </mxCell>
        <mxCell id="e642xRVTgl7zbtHsGjpM-36" value="Kas kasutaja on sisestanud c_külg andmed?" style="rhombus;whiteSpace=wrap;html=1;" vertex="1" parent="WIyWlLk6GJQsqaUBKTNV-1">
          <mxGeometry x="1970" y="585.01" width="120" height="80" as="geometry" />
        </mxCell>
        <mxCell id="e642xRVTgl7zbtHsGjpM-38" style="edgeStyle=orthogonalEdgeStyle;rounded=0;orthogonalLoop=1;jettySize=auto;html=1;entryX=0.429;entryY=0.012;entryDx=0;entryDy=0;entryPerimeter=0;" edge="1" parent="WIyWlLk6GJQsqaUBKTNV-1" source="e642xRVTgl7zbtHsGjpM-36" target="e642xRVTgl7zbtHsGjpM-34">
          <mxGeometry relative="1" as="geometry">
            <Array as="points">
              <mxPoint x="2040" y="520" />
              <mxPoint x="1830" y="520" />
            </Array>
          </mxGeometry>
        </mxCell>
        <mxCell id="e642xRVTgl7zbtHsGjpM-39" value="EI" style="edgeLabel;html=1;align=center;verticalAlign=middle;resizable=0;points=[];" vertex="1" connectable="0" parent="e642xRVTgl7zbtHsGjpM-38">
          <mxGeometry x="-0.0549" y="5" relative="1" as="geometry">
            <mxPoint as="offset" />
          </mxGeometry>
        </mxCell>
        <mxCell id="e642xRVTgl7zbtHsGjpM-41" value="Teostame arvutuslehte jaarvutame ko,nurga pindala kasutades valemit &quot;(a_külg + b_külg +c_külg)/2&quot;" style="shape=parallelogram;perimeter=parallelogramPerimeter;whiteSpace=wrap;html=1;fixedSize=1;" vertex="1" parent="WIyWlLk6GJQsqaUBKTNV-1">
          <mxGeometry x="2110" y="592.5" width="270" height="65" as="geometry" />
        </mxCell>
        <mxCell id="e642xRVTgl7zbtHsGjpM-113" style="edgeStyle=orthogonalEdgeStyle;rounded=0;orthogonalLoop=1;jettySize=auto;html=1;entryX=0;entryY=0.5;entryDx=0;entryDy=0;" edge="1" parent="WIyWlLk6GJQsqaUBKTNV-1" source="e642xRVTgl7zbtHsGjpM-44" target="e642xRVTgl7zbtHsGjpM-89">
          <mxGeometry relative="1" as="geometry" />
        </mxCell>
        <mxCell id="e642xRVTgl7zbtHsGjpM-44" value="Kuva kasutajale tekst &quot;Palun sisesta oma toa esimene külg" style="shape=parallelogram;perimeter=parallelogramPerimeter;whiteSpace=wrap;html=1;fixedSize=1;" vertex="1" parent="WIyWlLk6GJQsqaUBKTNV-1">
          <mxGeometry x="294" y="785" width="120" height="60" as="geometry" />
        </mxCell>
        <mxCell id="e642xRVTgl7zbtHsGjpM-88" style="edgeStyle=orthogonalEdgeStyle;rounded=0;orthogonalLoop=1;jettySize=auto;html=1;entryX=0;entryY=0.5;entryDx=0;entryDy=0;" edge="1" source="e642xRVTgl7zbtHsGjpM-89" target="e642xRVTgl7zbtHsGjpM-93" parent="WIyWlLk6GJQsqaUBKTNV-1">
          <mxGeometry relative="1" as="geometry" />
        </mxCell>
        <mxCell id="e642xRVTgl7zbtHsGjpM-89" value="Oota kuni kasutaja sisestab muutujasse &quot;a_külg double tüüpi andmed&quot;" style="rounded=0;whiteSpace=wrap;html=1;" vertex="1" parent="WIyWlLk6GJQsqaUBKTNV-1">
          <mxGeometry x="460" y="770" width="140" height="90" as="geometry" />
        </mxCell>
        <mxCell id="e642xRVTgl7zbtHsGjpM-90" style="edgeStyle=orthogonalEdgeStyle;rounded=0;orthogonalLoop=1;jettySize=auto;html=1;" edge="1" source="e642xRVTgl7zbtHsGjpM-93" target="e642xRVTgl7zbtHsGjpM-89" parent="WIyWlLk6GJQsqaUBKTNV-1">
          <mxGeometry relative="1" as="geometry">
            <Array as="points">
              <mxPoint x="740" y="710" />
              <mxPoint x="530" y="710" />
            </Array>
          </mxGeometry>
        </mxCell>
        <mxCell id="e642xRVTgl7zbtHsGjpM-91" value="EI" style="edgeLabel;html=1;align=center;verticalAlign=middle;resizable=0;points=[];" vertex="1" connectable="0" parent="e642xRVTgl7zbtHsGjpM-90">
          <mxGeometry x="-0.0925" y="2" relative="1" as="geometry">
            <mxPoint as="offset" />
          </mxGeometry>
        </mxCell>
        <mxCell id="e642xRVTgl7zbtHsGjpM-92" style="edgeStyle=orthogonalEdgeStyle;rounded=0;orthogonalLoop=1;jettySize=auto;html=1;" edge="1" source="e642xRVTgl7zbtHsGjpM-93" target="e642xRVTgl7zbtHsGjpM-95" parent="WIyWlLk6GJQsqaUBKTNV-1">
          <mxGeometry relative="1" as="geometry" />
        </mxCell>
        <mxCell id="e642xRVTgl7zbtHsGjpM-93" value="Kas kasutaja on sisetanud A_külg andmed?" style="rhombus;whiteSpace=wrap;html=1;" vertex="1" parent="WIyWlLk6GJQsqaUBKTNV-1">
          <mxGeometry x="670" y="775" width="140" height="80" as="geometry" />
        </mxCell>
        <mxCell id="e642xRVTgl7zbtHsGjpM-94" style="edgeStyle=orthogonalEdgeStyle;rounded=0;orthogonalLoop=1;jettySize=auto;html=1;" edge="1" source="e642xRVTgl7zbtHsGjpM-95" parent="WIyWlLk6GJQsqaUBKTNV-1">
          <mxGeometry relative="1" as="geometry">
            <mxPoint x="1080" y="815" as="targetPoint" />
          </mxGeometry>
        </mxCell>
        <mxCell id="e642xRVTgl7zbtHsGjpM-95" value="Kuva kasutajale tekst &quot;Palun sisesta oma toa teine külg&quot;" style="shape=parallelogram;perimeter=parallelogramPerimeter;whiteSpace=wrap;html=1;fixedSize=1;" vertex="1" parent="WIyWlLk6GJQsqaUBKTNV-1">
          <mxGeometry x="860" y="785" width="170" height="60" as="geometry" />
        </mxCell>
        <mxCell id="e642xRVTgl7zbtHsGjpM-96" style="edgeStyle=orthogonalEdgeStyle;rounded=0;orthogonalLoop=1;jettySize=auto;html=1;entryX=0;entryY=0.5;entryDx=0;entryDy=0;" edge="1" source="e642xRVTgl7zbtHsGjpM-97" target="e642xRVTgl7zbtHsGjpM-101" parent="WIyWlLk6GJQsqaUBKTNV-1">
          <mxGeometry relative="1" as="geometry" />
        </mxCell>
        <mxCell id="e642xRVTgl7zbtHsGjpM-97" value="Oota kuni kasutaja sisestab muutujasse&quot;b_külg double tüüpi andmed&quot;" style="rounded=0;whiteSpace=wrap;html=1;" vertex="1" parent="WIyWlLk6GJQsqaUBKTNV-1">
          <mxGeometry x="1080" y="775" width="139" height="80" as="geometry" />
        </mxCell>
        <mxCell id="e642xRVTgl7zbtHsGjpM-100" style="edgeStyle=orthogonalEdgeStyle;rounded=0;orthogonalLoop=1;jettySize=auto;html=1;entryX=0;entryY=0.5;entryDx=0;entryDy=0;" edge="1" source="e642xRVTgl7zbtHsGjpM-101" target="e642xRVTgl7zbtHsGjpM-103" parent="WIyWlLk6GJQsqaUBKTNV-1">
          <mxGeometry relative="1" as="geometry" />
        </mxCell>
        <mxCell id="e642xRVTgl7zbtHsGjpM-114" style="edgeStyle=orthogonalEdgeStyle;rounded=0;orthogonalLoop=1;jettySize=auto;html=1;exitX=0.5;exitY=0;exitDx=0;exitDy=0;entryX=0.75;entryY=0;entryDx=0;entryDy=0;" edge="1" parent="WIyWlLk6GJQsqaUBKTNV-1" source="e642xRVTgl7zbtHsGjpM-101" target="e642xRVTgl7zbtHsGjpM-97">
          <mxGeometry relative="1" as="geometry">
            <Array as="points">
              <mxPoint x="1350" y="710" />
              <mxPoint x="1130" y="710" />
              <mxPoint x="1130" y="775" />
            </Array>
          </mxGeometry>
        </mxCell>
        <mxCell id="e642xRVTgl7zbtHsGjpM-115" value="EI" style="edgeLabel;html=1;align=center;verticalAlign=middle;resizable=0;points=[];" vertex="1" connectable="0" parent="e642xRVTgl7zbtHsGjpM-114">
          <mxGeometry x="-0.0897" relative="1" as="geometry">
            <mxPoint as="offset" />
          </mxGeometry>
        </mxCell>
        <mxCell id="e642xRVTgl7zbtHsGjpM-101" value="Kas kasutaja on sisetanud b_külg andmed?" style="rhombus;whiteSpace=wrap;html=1;" vertex="1" parent="WIyWlLk6GJQsqaUBKTNV-1">
          <mxGeometry x="1280" y="775" width="140" height="80" as="geometry" />
        </mxCell>
        <mxCell id="e642xRVTgl7zbtHsGjpM-102" style="edgeStyle=orthogonalEdgeStyle;rounded=0;orthogonalLoop=1;jettySize=auto;html=1;entryX=0;entryY=0.5;entryDx=0;entryDy=0;" edge="1" source="e642xRVTgl7zbtHsGjpM-103" target="e642xRVTgl7zbtHsGjpM-105" parent="WIyWlLk6GJQsqaUBKTNV-1">
          <mxGeometry relative="1" as="geometry" />
        </mxCell>
        <mxCell id="e642xRVTgl7zbtHsGjpM-103" value="Kuva kasutajale tekst &quot;Palun sisesta oma toa kolmas külg&quot;" style="shape=parallelogram;perimeter=parallelogramPerimeter;whiteSpace=wrap;html=1;fixedSize=1;" vertex="1" parent="WIyWlLk6GJQsqaUBKTNV-1">
          <mxGeometry x="1470" y="785" width="170" height="60" as="geometry" />
        </mxCell>
        <mxCell id="e642xRVTgl7zbtHsGjpM-104" style="edgeStyle=orthogonalEdgeStyle;rounded=0;orthogonalLoop=1;jettySize=auto;html=1;entryX=0;entryY=0.5;entryDx=0;entryDy=0;" edge="1" source="e642xRVTgl7zbtHsGjpM-105" target="e642xRVTgl7zbtHsGjpM-108" parent="WIyWlLk6GJQsqaUBKTNV-1">
          <mxGeometry relative="1" as="geometry" />
        </mxCell>
        <mxCell id="e642xRVTgl7zbtHsGjpM-105" value="Oota kuni kasutaja sisestab muutujasse&quot;c_külg double tüüpi andmed&quot;" style="rounded=0;whiteSpace=wrap;html=1;" vertex="1" parent="WIyWlLk6GJQsqaUBKTNV-1">
          <mxGeometry x="1700" y="778.13" width="140" height="73.75" as="geometry" />
        </mxCell>
        <mxCell id="e642xRVTgl7zbtHsGjpM-106" style="edgeStyle=orthogonalEdgeStyle;rounded=0;orthogonalLoop=1;jettySize=auto;html=1;entryX=0;entryY=0.5;entryDx=0;entryDy=0;" edge="1" source="e642xRVTgl7zbtHsGjpM-108" target="e642xRVTgl7zbtHsGjpM-111" parent="WIyWlLk6GJQsqaUBKTNV-1">
          <mxGeometry relative="1" as="geometry" />
        </mxCell>
        <mxCell id="e642xRVTgl7zbtHsGjpM-107" value="JAH" style="edgeLabel;html=1;align=center;verticalAlign=middle;resizable=0;points=[];" vertex="1" connectable="0" parent="e642xRVTgl7zbtHsGjpM-106">
          <mxGeometry x="0.6287" y="-2" relative="1" as="geometry">
            <mxPoint as="offset" />
          </mxGeometry>
        </mxCell>
        <mxCell id="e642xRVTgl7zbtHsGjpM-108" value="Kas kasutaja on sisestanud c_külg andmed?" style="rhombus;whiteSpace=wrap;html=1;" vertex="1" parent="WIyWlLk6GJQsqaUBKTNV-1">
          <mxGeometry x="1900" y="775.01" width="120" height="80" as="geometry" />
        </mxCell>
        <mxCell id="e642xRVTgl7zbtHsGjpM-109" style="edgeStyle=orthogonalEdgeStyle;rounded=0;orthogonalLoop=1;jettySize=auto;html=1;entryX=0.429;entryY=0.012;entryDx=0;entryDy=0;entryPerimeter=0;" edge="1" source="e642xRVTgl7zbtHsGjpM-108" target="e642xRVTgl7zbtHsGjpM-105" parent="WIyWlLk6GJQsqaUBKTNV-1">
          <mxGeometry relative="1" as="geometry">
            <Array as="points">
              <mxPoint x="1970" y="710" />
              <mxPoint x="1760" y="710" />
            </Array>
          </mxGeometry>
        </mxCell>
        <mxCell id="e642xRVTgl7zbtHsGjpM-110" value="EI" style="edgeLabel;html=1;align=center;verticalAlign=middle;resizable=0;points=[];" vertex="1" connectable="0" parent="e642xRVTgl7zbtHsGjpM-109">
          <mxGeometry x="-0.0549" y="5" relative="1" as="geometry">
            <mxPoint as="offset" />
          </mxGeometry>
        </mxCell>
        <mxCell id="e642xRVTgl7zbtHsGjpM-133" style="edgeStyle=orthogonalEdgeStyle;rounded=0;orthogonalLoop=1;jettySize=auto;html=1;" edge="1" parent="WIyWlLk6GJQsqaUBKTNV-1" source="e642xRVTgl7zbtHsGjpM-111">
          <mxGeometry relative="1" as="geometry">
            <mxPoint x="2370" y="815" as="targetPoint" />
          </mxGeometry>
        </mxCell>
        <mxCell id="e642xRVTgl7zbtHsGjpM-111" value="Teostame arvutuslehte ja arvutame ristküliku pindala kasutades valemit &quot;(a_külg + b_külg &quot;" style="shape=parallelogram;perimeter=parallelogramPerimeter;whiteSpace=wrap;html=1;fixedSize=1;" vertex="1" parent="WIyWlLk6GJQsqaUBKTNV-1">
          <mxGeometry x="2040" y="782.5" width="270" height="65" as="geometry" />
        </mxCell>
        <mxCell id="e642xRVTgl7zbtHsGjpM-124" style="edgeStyle=orthogonalEdgeStyle;rounded=0;orthogonalLoop=1;jettySize=auto;html=1;" edge="1" parent="WIyWlLk6GJQsqaUBKTNV-1" source="e642xRVTgl7zbtHsGjpM-116" target="e642xRVTgl7zbtHsGjpM-120">
          <mxGeometry relative="1" as="geometry" />
        </mxCell>
        <mxCell id="e642xRVTgl7zbtHsGjpM-116" value="Kas sisestatud sõna on &quot;ring&quot;?" style="rhombus;whiteSpace=wrap;html=1;" vertex="1" parent="WIyWlLk6GJQsqaUBKTNV-1">
          <mxGeometry x="77.5" y="1000" width="145" height="80" as="geometry" />
        </mxCell>
        <mxCell id="e642xRVTgl7zbtHsGjpM-119" style="edgeStyle=orthogonalEdgeStyle;rounded=0;orthogonalLoop=1;jettySize=auto;html=1;entryX=0;entryY=0.5;entryDx=0;entryDy=0;" edge="1" source="e642xRVTgl7zbtHsGjpM-120" target="e642xRVTgl7zbtHsGjpM-122" parent="WIyWlLk6GJQsqaUBKTNV-1">
          <mxGeometry relative="1" as="geometry" />
        </mxCell>
        <mxCell id="e642xRVTgl7zbtHsGjpM-120" value="Kuva kasutajale tekst &quot;&quot;Palun sisesta oma toa läbimõõt&quot;" style="shape=parallelogram;perimeter=parallelogramPerimeter;whiteSpace=wrap;html=1;fixedSize=1;" vertex="1" parent="WIyWlLk6GJQsqaUBKTNV-1">
          <mxGeometry x="272" y="1010" width="120" height="60" as="geometry" />
        </mxCell>
        <mxCell id="e642xRVTgl7zbtHsGjpM-121" style="edgeStyle=orthogonalEdgeStyle;rounded=0;orthogonalLoop=1;jettySize=auto;html=1;entryX=0;entryY=0.5;entryDx=0;entryDy=0;" edge="1" source="e642xRVTgl7zbtHsGjpM-122" target="e642xRVTgl7zbtHsGjpM-123" parent="WIyWlLk6GJQsqaUBKTNV-1">
          <mxGeometry relative="1" as="geometry" />
        </mxCell>
        <mxCell id="e642xRVTgl7zbtHsGjpM-122" value="Oota kuni kasutaja sisestab muutujasse &quot;läbimõõt&quot; double- tüüpi andmed&quot;" style="rounded=0;whiteSpace=wrap;html=1;" vertex="1" parent="WIyWlLk6GJQsqaUBKTNV-1">
          <mxGeometry x="438" y="995" width="140" height="90" as="geometry" />
        </mxCell>
        <mxCell id="e642xRVTgl7zbtHsGjpM-125" style="edgeStyle=orthogonalEdgeStyle;rounded=0;orthogonalLoop=1;jettySize=auto;html=1;" edge="1" parent="WIyWlLk6GJQsqaUBKTNV-1" source="e642xRVTgl7zbtHsGjpM-123">
          <mxGeometry relative="1" as="geometry">
            <mxPoint x="980" y="1040" as="targetPoint" />
          </mxGeometry>
        </mxCell>
        <mxCell id="e642xRVTgl7zbtHsGjpM-126" value="JAH" style="edgeLabel;html=1;align=center;verticalAlign=middle;resizable=0;points=[];" vertex="1" connectable="0" parent="e642xRVTgl7zbtHsGjpM-125">
          <mxGeometry x="0.0963" y="-2" relative="1" as="geometry">
            <mxPoint as="offset" />
          </mxGeometry>
        </mxCell>
        <mxCell id="e642xRVTgl7zbtHsGjpM-123" value="Kas kasutaja on sisetanud läbimõõt andmed?" style="rhombus;whiteSpace=wrap;html=1;" vertex="1" parent="WIyWlLk6GJQsqaUBKTNV-1">
          <mxGeometry x="648" y="1000" width="140" height="80" as="geometry" />
        </mxCell>
        <mxCell id="e642xRVTgl7zbtHsGjpM-130" style="edgeStyle=orthogonalEdgeStyle;rounded=0;orthogonalLoop=1;jettySize=auto;html=1;entryX=0.459;entryY=-0.015;entryDx=0;entryDy=0;entryPerimeter=0;" edge="1" parent="WIyWlLk6GJQsqaUBKTNV-1" source="e642xRVTgl7zbtHsGjpM-128" target="e642xRVTgl7zbtHsGjpM-129">
          <mxGeometry relative="1" as="geometry">
            <mxPoint x="1106" y="1140" as="targetPoint" />
            <Array as="points">
              <mxPoint x="1106" y="1140" />
              <mxPoint x="216" y="1140" />
            </Array>
          </mxGeometry>
        </mxCell>
        <mxCell id="e642xRVTgl7zbtHsGjpM-132" style="edgeStyle=orthogonalEdgeStyle;rounded=0;orthogonalLoop=1;jettySize=auto;html=1;entryX=1;entryY=0.5;entryDx=0;entryDy=0;" edge="1" parent="WIyWlLk6GJQsqaUBKTNV-1" source="e642xRVTgl7zbtHsGjpM-128" target="e642xRVTgl7zbtHsGjpM-41">
          <mxGeometry relative="1" as="geometry" />
        </mxCell>
        <mxCell id="e642xRVTgl7zbtHsGjpM-128" value="&amp;nbsp;Teostame arvtuslehte ja arvutame ringi pindala kasutates valemit&quot;Math PI *Math Pow (läbimõõt/2))&amp;nbsp;" style="shape=parallelogram;perimeter=parallelogramPerimeter;whiteSpace=wrap;html=1;fixedSize=1;" vertex="1" parent="WIyWlLk6GJQsqaUBKTNV-1">
          <mxGeometry x="971" y="1010" width="270" height="65" as="geometry" />
        </mxCell>
        <mxCell id="e642xRVTgl7zbtHsGjpM-129" value="Kuvame kasutajale tulemuse lausega &quot;Sinu toa pindala on {tulemus}&quot;" style="shape=parallelogram;perimeter=parallelogramPerimeter;whiteSpace=wrap;html=1;fixedSize=1;" vertex="1" parent="WIyWlLk6GJQsqaUBKTNV-1">
          <mxGeometry x="120" y="1180" width="210" height="80" as="geometry" />
        </mxCell>
      </root>
    </mxGraphModel>
  </diagram>
</mxfile>
